<svg width="506" height="165" viewBox="0 0 506 165" fill="none" xmlns="http://www.w3.org/2000/svg">
<ellipse cx="149.297" cy="69.1998" rx="55.767" ry="59.6736" fill="#82C6E1"/>
<ellipse cx="199.968" cy="99.0365" rx="35.1021" ry="29.8368" fill="#82C6E1"/>
<path d="M276.259 127.965L152.552 127.965L223.747 82.2249L276.259 127.965Z" fill="#82C6E1"/>
<path d="M276.259 127.965L152.552 127.965L223.747 82.2249L276.259 127.965Z" fill="#82C6E1"/>
<ellipse cx="76.7192" cy="82.0935" rx="76.7192" ry="82.0935" fill="#B7E4F9"/>
<ellipse cx="146.428" cy="123.14" rx="48.2902" ry="41.0468" fill="#B7E4F9"/>
<path d="M251.382 162.937L81.1977 162.937L179.141 100.012L251.382 162.937Z" fill="#B7E4F9"/>
<path d="M251.382 162.937L81.1977 162.937L179.141 100.012L251.382 162.937Z" fill="#B7E4F9"/>
<ellipse cx="250.984" cy="111.538" rx="49.2023" ry="52.649" fill="#B7E4F9"/>
<ellipse cx="295.69" cy="137.862" rx="30.97" ry="26.3245" fill="#B7E4F9"/>
<path d="M363 163.385L253.856 163.385L316.67 123.03L363 163.385Z" fill="#B7E4F9"/>
<path d="M363 163.385L253.856 163.385L316.67 123.03L363 163.385Z" fill="#B7E4F9"/>
<ellipse cx="29.9575" cy="28.417" rx="29.9575" ry="28.417" transform="matrix(-1 0 0 1 455.757 90.5364)" fill="#82C6E1"/>
<ellipse cx="18.8565" cy="14.2085" rx="18.8565" ry="14.2085" transform="matrix(-1 0 0 1 417.436 118.953)" fill="#82C6E1"/>
<path d="M357.597 146.938L424.051 146.938L385.805 125.156L357.597 146.938Z" fill="#82C6E1"/>
<path d="M357.597 146.938L424.051 146.938L385.805 125.156L357.597 146.938Z" fill="#82C6E1"/>
<ellipse cx="41.2128" cy="39.0935" rx="41.2128" ry="39.0935" transform="matrix(-1 0 0 1 506 86)" fill="#B7E4F9"/>
<ellipse cx="25.9411" cy="19.5468" rx="25.9411" ry="19.5468" transform="matrix(-1 0 0 1 453.281 125.093)" fill="#B7E4F9"/>
<path d="M370.96 163.592L462.381 163.592L409.767 133.627L370.96 163.592Z" fill="#B7E4F9"/>
<path d="M370.96 163.592L462.381 163.592L409.767 133.627L370.96 163.592Z" fill="#B7E4F9"/>
<ellipse cx="26.431" cy="25.0719" rx="26.431" ry="25.0719" transform="matrix(-1 0 0 1 397.605 114.043)" fill="#B7E4F9"/>
<ellipse cx="16.6368" cy="12.5359" rx="16.6368" ry="12.5359" transform="matrix(-1 0 0 1 363.795 139.115)" fill="#B7E4F9"/>
<path d="M311 163.805L369.631 163.805L335.888 144.588L311 163.805Z" fill="#B7E4F9"/>
<path d="M311 163.805L369.631 163.805L335.888 144.588L311 163.805Z" fill="#B7E4F9"/>
</svg>
