<svg width="979" height="288" viewBox="0 0 979 288" fill="none" xmlns="http://www.w3.org/2000/svg">
<ellipse cx="19.6012" cy="120.151" rx="124.601" ry="99.1513" fill="#8FC5B8"/>
<ellipse cx="132.818" cy="169.728" rx="78.4292" ry="49.5757" fill="#8FC5B8"/>
<path d="M303.275 217.793L26.8753 217.793L185.947 141.793L303.275 217.793Z" fill="#8FC5B8"/>
<path d="M303.275 217.793L26.8753 217.793L185.947 141.793L303.275 217.793Z" fill="#8FC5B8"/>
<ellipse cx="124.601" cy="99.1513" rx="124.601" ry="99.1513" transform="matrix(-1 0 0 1 979 21.2197)" fill="#8FC5B8"/>
<ellipse cx="78.4292" cy="49.5757" rx="78.4292" ry="49.5757" transform="matrix(-1 0 0 1 819.612 120.372)" fill="#8FC5B8"/>
<path d="M570.725 218.012L847.125 218.012L688.053 142.013L570.725 218.012Z" fill="#8FC5B8"/>
<path d="M570.725 218.012L847.125 218.012L688.053 142.013L570.725 218.012Z" fill="#8FC5B8"/>
<path d="M727.584 221.215C727.584 258.033 714.618 231.029 658.009 266.899C590.649 246.934 570.725 258.033 570.725 221.215C570.725 184.397 605.839 154.55 649.155 154.55C692.47 154.55 727.584 184.397 727.584 221.215Z" fill="#9FCFBD"/>
<ellipse cx="727.584" cy="173.5" rx="106.891" ry="114.379" fill="#9FCFBD"/>
<ellipse cx="189.601" cy="133.656" rx="124.601" ry="133.33" fill="#9FCFBD"/>
<ellipse cx="302.818" cy="200.321" rx="78.4292" ry="66.6649" fill="#9FCFBD"/>
<path d="M473.275 264.956L196.875 264.956L355.947 162.759L473.275 264.956Z" fill="#9FCFBD"/>
<path d="M473.275 264.956L196.875 264.956L355.947 162.759L473.275 264.956Z" fill="#9FCFBD"/>
<path d="M485.971 266.899L762.371 266.899L603.299 164.702L485.971 266.899Z" fill="#9FCFBD"/>
<path d="M485.971 266.899L762.371 266.899L603.299 164.702L485.971 266.899Z" fill="#9FCFBD"/>
</svg>
