<svg width="526" height="232" viewBox="0 0 526 232" fill="none" xmlns="http://www.w3.org/2000/svg">
<path d="M271.764 32.649C320.86 0.754389 363.595 5.92083 378.826 12.4909C445.124 -15.1033 467.97 23.9885 471.105 46.9836C502.612 58.4812 552.544 99.1259 500.223 169.724C434.821 257.972 351.053 124.928 271.764 133.887C192.476 142.847 119.459 326.509 24.9395 158.077C-50.6757 23.3315 87.2057 10.8484 165.598 21.45C180.53 38.4724 222.668 64.5435 271.764 32.649Z" stroke="#21536C" stroke-width="5"/>
<path d="M268.775 51.7669C311.075 30.5806 348.644 32.3669 362.141 35.9084C419.614 16.8053 440.525 40.0773 443.796 54.1012C471.669 60.1412 516.352 83.4879 472.106 128.554C416.799 184.887 340.36 105.879 271.079 113.957C201.797 122.034 141.987 237.226 55.3212 136.829C-14.0113 56.5107 106.539 44.3664 175.48 48.334C188.953 58.3059 226.475 72.9532 268.775 51.7669Z" stroke="#21536C" stroke-width="5"/>
<path d="M270.39 74.0299C306.332 63.1531 337.982 63.5269 349.314 65.0734C398.02 55.0107 415.341 66.0685 417.914 72.8553C441.333 75.4288 478.696 86.209 440.798 108.742C393.426 136.907 330.027 99.4384 271.511 104.287C212.996 109.136 161.05 166.027 89.3114 118.276C31.9203 80.0751 133.712 72.5684 191.782 73.5902C203.009 78.2688 234.449 84.9068 270.39 74.0299Z" stroke="#21536C" stroke-width="5"/>
</svg>
