<svg width="921" height="183" viewBox="0 0 921 183" fill="none" xmlns="http://www.w3.org/2000/svg">
<path d="M1 146.139C37.1789 139.528 106.139 101.844 92.5484 4C140.21 14.7037 228.172 60.2889 198.726 157C244.657 155.426 330.008 124.794 303.959 14.8611C356.497 18.9537 457.893 53.1111 443.169 157C494.764 154.954 589.269 123.661 554.537 14.8611C605.345 18.3241 702.053 51.6 682.422 157C738.263 151.333 835.978 114.972 780.105 14.8611C843.969 21.4722 958.105 59.1556 903.743 157" stroke="#21536C" stroke-width="5"/>
<path d="M42 172.12C67.5659 167.324 130.104 139.985 120.5 69C154.18 76.7654 191.808 109.837 171 180C203.458 178.858 362.407 156.635 344 76.8796C381.126 79.8488 415.904 104.63 405.5 180C441.959 178.515 607.015 155.813 582.472 76.8796C618.375 79.392 668.872 103.533 655 180C694.46 175.889 859.483 149.509 820 76.8796C865.129 81.6759 910.916 109.015 872.5 180" stroke="#21536C" stroke-width="5"/>
</svg>
