<svg width="178" height="124" viewBox="0 0 178 124" fill="none" xmlns="http://www.w3.org/2000/svg">
<rect x="2.104" y="18.761" width="174.121" height="8.68191" fill="#091B25"/>
<path d="M3.15393 26.6413C1.77597 23.2194 4.45138 19.5345 8.13182 19.7852L44.4284 22.2577L88.6821 25.2723L169.534 19.7646C173.139 19.5191 175.806 23.06 174.575 26.4567L152.338 87.8138C151.621 89.7923 149.742 91.1101 147.637 91.1101H32.4913C30.4509 91.1101 28.6153 89.8704 27.8532 87.9778L3.15393 26.6413Z" fill="#0E2C34"/>
<path d="M3.15393 30.5C1.77597 27.078 4.45138 23.3931 8.13182 23.6438L44.4284 26.1164L88.6821 29.1309L169.534 23.6233C173.139 23.3777 175.806 26.9187 174.575 30.3153L152.338 91.6724C151.621 93.651 149.742 94.9687 147.637 94.9687H32.4913C30.4509 94.9687 28.6153 93.7291 27.8532 91.8364L3.15393 30.5Z" fill="#0C1D26"/>
<path d="M94.2434 5.84809C93.7011 4.40643 94.9235 2.91857 96.443 3.17092L98.1915 3.46131C98.9008 3.5791 99.4923 4.06852 99.7407 4.7432L135.259 101.201C135.739 102.506 134.773 103.892 133.382 103.892L132.511 103.892C131.678 103.892 130.932 103.376 130.639 102.596L94.2434 5.84809Z" fill="#24322C"/>
<path d="M116.129 101.879C111.99 94.1016 115.837 84.47 124.194 81.6841V81.6841C132.751 78.8318 141.77 84.5544 142.834 93.5112L144.189 104.924C144.867 110.636 141.424 116.034 135.959 117.827V117.827C130.378 119.658 124.288 117.209 121.529 112.024L116.129 101.879Z" fill="#24322C"/>
</svg>
