<svg width="323" height="224" viewBox="0 0 323 224" fill="none" xmlns="http://www.w3.org/2000/svg">
<rect x="4.30957" y="32.9875" width="316.719" height="15.7921" fill="#334853"/>
<path d="M3.77941 41.263C2.40145 37.8411 5.07687 34.1562 8.7573 34.4069L81.2961 39.3483L161.792 44.8316L315.129 34.3864C318.733 34.1408 321.4 37.6818 320.169 41.0784L276.602 161.292C275.885 163.271 274.006 164.588 271.901 164.588H56.8174C54.7771 164.588 52.9414 163.349 52.1793 161.456L3.77941 41.263Z" fill="#3F6C78"/>
<path d="M3.77941 48.2817C2.40145 44.8598 5.07687 41.1749 8.7573 41.4256L81.2961 46.367L161.792 51.8503L315.129 41.4051C318.733 41.1595 321.4 44.7005 320.169 48.0971L276.602 168.311C275.885 170.289 274.006 171.607 271.901 171.607H56.8174C54.7771 171.607 52.9414 170.367 52.1793 168.475L3.77941 48.2817Z" fill="#303B41"/>
<path d="M170.909 6.84192C170.366 5.40026 171.589 3.91239 173.108 4.16474L180.03 5.31421C180.739 5.432 181.33 5.92142 181.579 6.5961L247.325 185.147C247.806 186.452 246.84 187.838 245.448 187.838L240.382 187.838C239.549 187.838 238.803 187.322 238.51 186.542L170.909 6.84192Z" fill="#515D58"/>
<path d="M205.662 172.797C201.3 164.603 205.354 154.454 214.16 151.519L239.077 143.213C248.093 140.208 257.595 146.238 258.716 155.675L263.431 195.385C264.273 202.477 259.998 209.179 253.212 211.406L242.214 215.014C235.284 217.288 227.723 214.248 224.296 207.809L205.662 172.797Z" fill="#515D58"/>
</svg>
